<?xml version="1.0" encoding="UTF-8" standalone="no"?>
<!-- Created with Inkscape (http://www.inkscape.org/) -->

<svg
   xmlns:dc="http://purl.org/dc/elements/1.1/"
   xmlns:cc="http://creativecommons.org/ns#"
   xmlns:rdf="http://www.w3.org/1999/02/22-rdf-syntax-ns#"
   xmlns:svg="http://www.w3.org/2000/svg"
   xmlns="http://www.w3.org/2000/svg"
   xmlns:sodipodi="http://sodipodi.sourceforge.net/DTD/sodipodi-0.dtd"
   xmlns:inkscape="http://www.inkscape.org/namespaces/inkscape"
   width="10.865556mm"
   height="10.143969mm"
   viewBox="0 0 38.499999 35.943196"
   id="svg4564"
   version="1.1"
   inkscape:version="0.91 r13725"
   sodipodi:docname="blackQueen.svg">
  <defs
     id="defs4566" />
  <sodipodi:namedview
     id="base"
     pagecolor="#ffffff"
     bordercolor="#666666"
     borderopacity="1.0"
     inkscape:pageopacity="0.0"
     inkscape:pageshadow="2"
     inkscape:zoom="5.6"
     inkscape:cx="-35.413644"
     inkscape:cy="27.189469"
     inkscape:document-units="px"
     inkscape:current-layer="layer1"
     showgrid="false"
     fit-margin-top="0"
     fit-margin-left="0"
     fit-margin-right="0"
     fit-margin-bottom="0"
     inkscape:window-width="1920"
     inkscape:window-height="1027"
     inkscape:window-x="1920"
     inkscape:window-y="25"
     inkscape:window-maximized="1" />
  <metadata
     id="metadata4569">
    <rdf:RDF>
      <cc:Work
         rdf:about="">
        <dc:format>image/svg+xml</dc:format>
        <dc:type
           rdf:resource="http://purl.org/dc/dcmitype/StillImage" />
        <dc:title></dc:title>
      </cc:Work>
    </rdf:RDF>
  </metadata>
  <g
     inkscape:label="Layer 1"
     inkscape:groupmode="layer"
     id="layer1"
     transform="translate(-279.10289,-587.20452)">
    <g
       style="opacity:1;fill-opacity:1;fill-rule:evenodd;stroke:#000000;stroke-width:1.5;stroke-linecap:round;stroke-linejoin:round;stroke-miterlimit:4;stroke-dasharray:none;stroke-opacity:1"
       transform="translate(275.85289,581.95452)"
       id="g4462">
      <g
         style="fill:#000000;stroke:none"
         id="g4464">
        <circle
           cx="6"
           cy="12"
           r="2.75"
           id="circle4466" />
        <circle
           cx="14"
           cy="9"
           r="2.75"
           id="circle4468" />
        <circle
           cx="22.5"
           cy="8"
           r="2.75"
           id="circle4470" />
        <circle
           cx="31"
           cy="9"
           r="2.75"
           id="circle4472" />
        <circle
           cx="39"
           cy="12"
           r="2.75"
           id="circle4474" />
      </g>
      <path
         inkscape:connector-curvature="0"
         d="m 9,26 c 8.5,-1.5 21,-1.5 27,0 L 38.5,13.5 31,25 30.7,10.9 25.5,24.5 22.5,10 19.5,24.5 14.3,10.9 14,25 6.5,13.5 9,26 Z"
         style="stroke:#000000;stroke-linecap:butt"
         id="path4476" />
      <path
         inkscape:connector-curvature="0"
         d="m 9,26 c 0,2 1.5,2 2.5,4 1,1.5 1,1 0.5,3.5 -1.5,1 -1.5,2.5 -1.5,2.5 -1.5,1.5 0.5,2.5 0.5,2.5 6.5,1 16.5,1 23,0 0,0 1.5,-1 0,-2.5 0,0 0.5,-1.5 -1,-2.5 -0.5,-2.5 -0.5,-2 0.5,-3.5 1,-2 2.5,-2 2.5,-4 -8.5,-1.5 -18.5,-1.5 -27,0 z"
         style="stroke-linecap:butt"
         id="path4478" />
      <path
         inkscape:connector-curvature="0"
         d="m 11,38.5 a 35,35 1 0 0 23,0"
         style="fill:none;stroke:#000000;stroke-linecap:butt"
         id="path4480" />
      <path
         inkscape:connector-curvature="0"
         d="m 11,29 a 35,35 1 0 1 23,0"
         style="fill:none;stroke:#ffffff"
         id="path4482" />
      <path
         inkscape:connector-curvature="0"
         d="m 12.5,31.5 20,0"
         style="fill:none;stroke:#ffffff"
         id="path4484" />
      <path
         inkscape:connector-curvature="0"
         d="m 11.5,34.5 a 35,35 1 0 0 22,0"
         style="fill:none;stroke:#ffffff"
         id="path4486" />
      <path
         inkscape:connector-curvature="0"
         d="m 10.5,37.5 a 35,35 1 0 0 24,0"
         style="fill:none;stroke:#ffffff"
         id="path4488" />
    </g>
  </g>
</svg>
