<?xml version="1.0" encoding="UTF-8" standalone="no"?>
<!-- Created with Inkscape (http://www.inkscape.org/) -->

<svg
   xmlns:dc="http://purl.org/dc/elements/1.1/"
   xmlns:cc="http://creativecommons.org/ns#"
   xmlns:rdf="http://www.w3.org/1999/02/22-rdf-syntax-ns#"
   xmlns:svg="http://www.w3.org/2000/svg"
   xmlns="http://www.w3.org/2000/svg"
   xmlns:sodipodi="http://sodipodi.sourceforge.net/DTD/sodipodi-0.dtd"
   xmlns:inkscape="http://www.inkscape.org/namespaces/inkscape"
   width="9.8143835mm"
   height="9.91607mm"
   viewBox="0 0 34.775373 35.135681"
   id="svg4564"
   version="1.1"
   inkscape:version="0.91 r13725"
   sodipodi:docname="whiteKing.svg">
  <defs
     id="defs4566" />
  <sodipodi:namedview
     id="base"
     pagecolor="#ffffff"
     bordercolor="#666666"
     borderopacity="1.0"
     inkscape:pageopacity="0.0"
     inkscape:pageshadow="2"
     inkscape:zoom="5.6"
     inkscape:cx="-58.761347"
     inkscape:cy="24.59402"
     inkscape:document-units="px"
     inkscape:current-layer="layer1"
     showgrid="false"
     fit-margin-top="0"
     fit-margin-left="0"
     fit-margin-right="0"
     fit-margin-bottom="0"
     inkscape:window-width="1920"
     inkscape:window-height="1027"
     inkscape:window-x="1920"
     inkscape:window-y="25"
     inkscape:window-maximized="1" />
  <metadata
     id="metadata4569">
    <rdf:RDF>
      <cc:Work
         rdf:about="">
        <dc:format>image/svg+xml</dc:format>
        <dc:type
           rdf:resource="http://purl.org/dc/dcmitype/StillImage" />
        <dc:title></dc:title>
      </cc:Work>
    </rdf:RDF>
  </metadata>
  <g
     inkscape:label="Layer 1"
     inkscape:groupmode="layer"
     id="layer1"
     transform="translate(-302.4506,-585.41659)">
    <g
       transform="translate(297.36969,580.17727)"
       style="fill:none;fill-opacity:1;fill-rule:evenodd;stroke:#000000;stroke-width:1.5;stroke-linecap:round;stroke-linejoin:round;stroke-miterlimit:4;stroke-dasharray:none;stroke-opacity:1"
       id="g4370">
      <path
         inkscape:connector-curvature="0"
         d="M 22.5,11.63 22.5,6"
         style="fill:none;stroke:#000000;stroke-linejoin:miter"
         id="path4372" />
      <path
         inkscape:connector-curvature="0"
         d="m 20,8 5,0"
         style="fill:none;stroke:#000000;stroke-linejoin:miter"
         id="path4374" />
      <path
         inkscape:connector-curvature="0"
         d="m 22.5,25 c 0,0 4.5,-7.5 3,-10.5 0,0 -1,-2.5 -3,-2.5 -2,0 -3,2.5 -3,2.5 -1.5,3 3,10.5 3,10.5"
         style="fill:#ffffff;stroke:#000000;stroke-linecap:butt;stroke-linejoin:miter"
         id="path4376" />
      <path
         inkscape:connector-curvature="0"
         d="m 11.5,37 c 5.5,3.5 15.5,3.5 21,0 l 0,-7 c 0,0 9,-4.5 6,-10.5 -4,-6.5 -13.5,-3.5 -16,4 l 0,3.5 0,-3.5 C 19,16 9.5,13 6.5,19.5 c -3,6 5,10 5,10 l 0,7.5 z"
         style="fill:#ffffff;stroke:#000000"
         id="path4378" />
      <path
         inkscape:connector-curvature="0"
         d="M 11.5,30 C 17,27 27,27 32.5,30"
         style="fill:none;stroke:#000000"
         id="path4380" />
      <path
         inkscape:connector-curvature="0"
         d="m 11.5,33.5 c 5.5,-3 15.5,-3 21,0"
         style="fill:none;stroke:#000000"
         id="path4382" />
      <path
         inkscape:connector-curvature="0"
         d="M 11.5,37 C 17,34 27,34 32.5,37"
         style="fill:none;stroke:#000000"
         id="path4384" />
    </g>
  </g>
</svg>
